<?xml version="1.0" encoding="UTF-8"?><svg xmlns="http://www.w3.org/2000/svg" xmlns:xlink="http://www.w3.org/1999/xlink" contentScriptType="text/ecmascript" width="30" zoomAndPan="magnify" contentStyleType="text/css" viewBox="0 0 30 30.000001" height="30.000001" preserveAspectRatio="xMidYMid meet" version="1.0"><defs><clipPath id="clip-0"><path d="M 0.484375 2.03125 L 29.515625 2.03125 L 29.515625 26.710938 L 0.484375 26.710938 Z M 0.484375 2.03125 " clip-rule="nonzero"/></clipPath></defs><g clip-path="url(#clip-0)"><path fill="rgb(85.099792%, 61.959839%, 50.979614%)" d="M 15 2.085938 C 6.984375 2.085938 0.484375 7.59375 0.484375 14.386719 C 0.484375 15.238281 0.585938 16.066406 0.78125 16.867188 C 2.214844 19.308594 3.207031 17.769531 7.742188 15.527344 C 12.359375 13.242188 7.742188 18.714844 6.128906 21.90625 C 5.632812 22.886719 5.902344 23.714844 6.582031 24.394531 C 8.957031 25.835938 11.859375 26.6875 15 26.6875 C 23.015625 26.6875 29.515625 21.183594 29.515625 14.386719 C 29.515625 7.59375 23.015625 2.085938 15 2.085938 Z M 17.296875 21.578125 C 16.980469 22.652344 15.3125 23.113281 13.578125 22.609375 C 11.839844 22.105469 10.691406 20.828125 11.011719 19.753906 C 11.328125 18.679688 12.996094 18.21875 14.730469 18.722656 C 16.46875 19.226562 17.617188 20.503906 17.296875 21.578125 Z M 17.296875 21.578125 " fill-opacity="1" fill-rule="nonzero"/></g><path fill="rgb(36.079407%, 56.858826%, 23.139954%)" d="M 10.96875 8.351562 C 10.96875 8.667969 10.90625 8.972656 10.785156 9.265625 C 10.660156 9.558594 10.484375 9.820312 10.257812 10.042969 C 10.03125 10.265625 9.769531 10.441406 9.472656 10.5625 C 9.179688 10.683594 8.871094 10.742188 8.546875 10.742188 C 8.226562 10.742188 7.917969 10.683594 7.621094 10.5625 C 7.324219 10.441406 7.066406 10.265625 6.835938 10.042969 C 6.609375 9.820312 6.4375 9.558594 6.3125 9.265625 C 6.191406 8.972656 6.128906 8.667969 6.128906 8.351562 C 6.128906 8.035156 6.191406 7.730469 6.3125 7.4375 C 6.4375 7.144531 6.609375 6.882812 6.835938 6.660156 C 7.066406 6.4375 7.324219 6.261719 7.621094 6.140625 C 7.917969 6.019531 8.226562 5.960938 8.546875 5.960938 C 8.871094 5.960938 9.179688 6.019531 9.472656 6.140625 C 9.769531 6.261719 10.03125 6.4375 10.257812 6.660156 C 10.484375 6.882812 10.660156 7.144531 10.785156 7.4375 C 10.90625 7.730469 10.96875 8.035156 10.96875 8.351562 Z M 10.96875 8.351562 " fill-opacity="1" fill-rule="nonzero"/><path fill="rgb(13.328552%, 39.99939%, 59.999084%)" d="M 19.03125 6.757812 C 19.03125 7.074219 18.972656 7.378906 18.847656 7.671875 C 18.726562 7.964844 18.550781 8.222656 18.324219 8.449219 C 18.097656 8.671875 17.835938 8.84375 17.539062 8.964844 C 17.242188 9.089844 16.933594 9.148438 16.613281 9.148438 C 16.292969 9.148438 15.984375 9.089844 15.6875 8.964844 C 15.390625 8.84375 15.128906 8.671875 14.902344 8.449219 C 14.675781 8.222656 14.5 7.964844 14.378906 7.671875 C 14.253906 7.378906 14.195312 7.074219 14.195312 6.757812 C 14.195312 6.441406 14.253906 6.132812 14.378906 5.839844 C 14.5 5.546875 14.675781 5.289062 14.902344 5.066406 C 15.128906 4.839844 15.390625 4.667969 15.6875 4.546875 C 15.984375 4.425781 16.292969 4.363281 16.613281 4.363281 C 16.933594 4.363281 17.242188 4.425781 17.539062 4.546875 C 17.835938 4.667969 18.097656 4.839844 18.324219 5.066406 C 18.550781 5.289062 18.726562 5.546875 18.847656 5.839844 C 18.972656 6.132812 19.03125 6.441406 19.03125 6.757812 Z M 19.03125 6.757812 " fill-opacity="1" fill-rule="nonzero"/><path fill="rgb(86.669922%, 18.03894%, 26.669312%)" d="M 26.289062 11.539062 C 26.289062 11.859375 26.230469 12.164062 26.105469 12.457031 C 25.984375 12.75 25.808594 13.007812 25.582031 13.230469 C 25.355469 13.457031 25.09375 13.628906 24.796875 13.75 C 24.5 13.871094 24.191406 13.933594 23.871094 13.933594 C 23.550781 13.933594 23.242188 13.871094 22.945312 13.75 C 22.648438 13.628906 22.386719 13.457031 22.160156 13.230469 C 21.933594 13.007812 21.757812 12.75 21.636719 12.457031 C 21.511719 12.164062 21.453125 11.859375 21.453125 11.539062 C 21.453125 11.222656 21.511719 10.917969 21.636719 10.625 C 21.757812 10.332031 21.933594 10.074219 22.160156 9.847656 C 22.386719 9.625 22.648438 9.453125 22.945312 9.332031 C 23.242188 9.210938 23.550781 9.148438 23.871094 9.148438 C 24.191406 9.148438 24.5 9.210938 24.796875 9.332031 C 25.09375 9.453125 25.355469 9.625 25.582031 9.847656 C 25.808594 10.074219 25.984375 10.332031 26.105469 10.625 C 26.230469 10.917969 26.289062 11.222656 26.289062 11.539062 Z M 26.289062 11.539062 " fill-opacity="1" fill-rule="nonzero"/><path fill="rgb(100%, 79.998779%, 30.198669%)" d="M 25.484375 18.714844 C 25.484375 19.035156 25.421875 19.339844 25.300781 19.632812 C 25.175781 19.925781 25.003906 20.183594 24.773438 20.40625 C 24.546875 20.632812 24.285156 20.804688 23.992188 20.925781 C 23.695312 21.046875 23.386719 21.109375 23.066406 21.109375 C 22.742188 21.109375 22.433594 21.046875 22.136719 20.925781 C 21.84375 20.804688 21.582031 20.632812 21.355469 20.40625 C 21.125 20.183594 20.953125 19.925781 20.828125 19.632812 C 20.707031 19.339844 20.644531 19.035156 20.644531 18.714844 C 20.644531 18.398438 20.707031 18.09375 20.828125 17.800781 C 20.953125 17.507812 21.125 17.25 21.355469 17.023438 C 21.582031 16.800781 21.84375 16.628906 22.136719 16.507812 C 22.433594 16.386719 22.742188 16.324219 23.066406 16.324219 C 23.386719 16.324219 23.695312 16.386719 23.992188 16.507812 C 24.285156 16.628906 24.546875 16.800781 24.773438 17.023438 C 25.003906 17.25 25.175781 17.507812 25.300781 17.800781 C 25.421875 18.09375 25.484375 18.398438 25.484375 18.714844 Z M 25.484375 18.714844 " fill-opacity="1" fill-rule="nonzero"/></svg>